<svg id="eVpgAnkvs1m1" xmlns="http://www.w3.org/2000/svg" xmlns:xlink="http://www.w3.org/1999/xlink" viewBox="0 0 300 300" shape-rendering="geometricPrecision" text-rendering="geometricPrecision" project-id="4c44f46c1e7a4e5a92c849e7e16030b8" export-id="2dfc39db75bd48328dd319a6c209e3da" cached="false"><defs><linearGradient id="eVpgAnkvs1m4-fill" x1="0.275753" y1="0.744937" x2="1" y2="-0.093355" spreadMethod="pad" gradientUnits="objectBoundingBox" gradientTransform="translate(0 0)"><stop id="eVpgAnkvs1m4-fill-0" offset="0%" stop-color="#c5c5c6"/><stop id="eVpgAnkvs1m4-fill-1" offset="100%" stop-color="#14131e"/></linearGradient><linearGradient id="eVpgAnkvs1m5-fill" x1="0" y1="0.5" x2="1.574059" y2="0.50343" spreadMethod="pad" gradientUnits="objectBoundingBox" gradientTransform="translate(0 0)"><stop id="eVpgAnkvs1m5-fill-0" offset="0%" stop-color="#f6f6f6"/><stop id="eVpgAnkvs1m5-fill-1" offset="100%" stop-color="#090909"/></linearGradient><linearGradient id="eVpgAnkvs1m6-fill" x1="0" y1="0.5" x2="1" y2="0.5" spreadMethod="pad" gradientUnits="objectBoundingBox" gradientTransform="translate(0 0)"><stop id="eVpgAnkvs1m6-fill-0" offset="0%" stop-color="#fff"/><stop id="eVpgAnkvs1m6-fill-1" offset="100%" stop-color="#000"/></linearGradient></defs><ellipse rx="139.324397" ry="139.324397" transform="translate(150 150)" stroke-width="0"/><g transform="matrix(.01967 0 0-.01967 24.135698 242.424115)"><path d="M10346,9385c-140-36-124-22-917-814-805-806-778-774-819-937-33-126-23-245,29-359c35-75,60-104,251-290c130-126,168-158,236-193c121-62,231-86,374-79c127,6,190,22,294,74c89,44,127,74,256,200l106,102l939-940c995-995,979-981,1120-1029c71-25,189-27,264-4c55,16,64,24,192,167c140,158,166,331,72,497-16,28-382,402-981,1002l-956,957l220,223c244,246,279,294,314,433c24,93,25,177,5,264-30,126-61,168-299,407-227,228-266,258-385,302-85,31-229,39-315,17Z" transform="translate(-773.588665 346.077733)" fill="url(#eVpgAnkvs1m4-fill)"/><rect width="48.829253" height="14.345893" rx="7.17" ry="7.17" transform="matrix(75.278005 0 0 117.404331 4540.575898 5095.002778)" fill="url(#eVpgAnkvs1m5-fill)" stroke-width="0"/><path d="M3170,5095l-135-135h-1518-1518l48-61c223-285,608-677,868-885c221-176,470-329,657-403c167-66,529-157,798-200c330-54,677-87,1058-101c304-11,429-26,589-71c352-99,574-294,644-567c26-103,26-262-1-368-41-161-160-356-337-550-244-268-705-607-1173-863-104-57-128-76-252-199L2760,555v-277-278h684h684l57,34c183,111,570,192,1080,227c242,16,862,13,1110-6c344-26,600-68,800-132c109-35,238-93,250-113c4-7,237-10,701-10h694v274v274l-93,86c-319,293-692,571-977,726-189,102-290,198-388,365-107,181-189,484-193,702-1,95,34,210,117,383c214,446,585,774,1050,929c271,91,420,109,954,121c391,9,554,17,765,41c327,36,583,108,661,186l34,34v279v280l28,6c82,18,105,27,144,57c24,18,54,53,68,77c23,42,25,55,25,180c0,155-8,176-78,207-40,17-181,18-3837,21l-3795,2-135-135Z" transform="translate(433.221175 0)" fill="url(#eVpgAnkvs1m6-fill)"/></g><g transform="matrix(.119846 0 0 0.119846 120.637792 96.278346)"><polygon points="95.583,258.914 203.967,306.033 203.967,275.528 128.362,245.546 203.967,216.641 203.967,185.911 95.583,232.82"/><polygon points="213.986,326.744 236.312,326.744 275.894,163.256 253.135,163.256"/><polygon points="285.928,216.431 361.638,245.86 285.928,275.633 285.928,306.153 394.416,258.914 394.416,233.03 285.928,186.12"/></g></svg>
